<svg xmlns="http://www.w3.org/2000/svg" width="3537" height="1024">
  <path d="M0 0v1024h1559.361l410.359-512L1559.361 0H0zm703.246 459.781a1758.9 1758.9 0 0 1-7.229-5.783c-6.037-4.848-11.976-9.62-18.088-14.196-16.677-12.61-34.793-22.654-55.566-27.13-22.938-4.968-46.094-6.769-68.971.109-32.633 9.771-55.347 31.061-70.358 60.704-12.465 24.674-15.788 50.823-12.521 78.006 2.607 21.29 9.528 41.053 22.216 58.573 19.498 26.913 46.089 42.473 79.332 46.564 29.915 3.714 58.889 0 86.309-12.991 9.365-4.45 9.365-4.529 9.365-14.774v-.186c0-2.495.005-4.98.009-7.471.014-4.966.023-9.923-.009-14.909a88.444 88.444 0 0 1 .019-2.583c.033-2.076.047-3.137-.484-3.677-.563-.568-1.736-.554-4.138-.526-.6.009-1.28.019-2.048.019h-86.975c-.777 0-1.466.005-2.076.014-2.434.028-3.621.042-4.189-.531-.54-.549-.517-1.624-.47-3.733.014-.703.033-1.517.033-2.467-.037-22.928-.023-45.852-.014-68.78v-.214c.009-11.39.014-22.784.014-34.178 0-.414.009-.838.023-1.261.023-.856.051-1.718-.023-2.56-.168-2.02.554-3.109 2.769-2.89.852.07 1.727.047 2.597.023l.754-.019.526-.005h219.876c1.443 0 2.662.27 2.439 2.071-.098 1.085.591 1.815 1.299 2.56.856.903 1.736 1.829 1.252 3.444-.424 1.396-.317 2.914-.209 4.44.051.689.098 1.378.098 2.057l-.005 39.187c-.009 52.243-.019 104.504.116 156.733 0 4.259-1.331 6.931-4.599 9.607-40.941 33.573-86.975 57.046-139.05 68.673-30.804 6.879-61.994 8.788-93.514 6.279-37.227-2.951-72.63-12.395-105.314-30.296-59.997-32.866-97.779-82.758-115.174-147.884-7.645-28.765-9.972-58.079-7.534-87.668 9.141-109.722 87.032-195.317 191.405-219.117 29.803-6.824 59.885-7.806 90.242-5.787 23.268 1.583 46.15 5.186 68.529 11.736 33.517 9.881 63.097 26.912 90.024 48.748a431.947 431.947 0 0 1 9.304 7.752c3.882 3.275 3.989 5.131.61 9.171a26628.182 26628.182 0 0 1-50.916 60.493l-.037.04c-8.462 10.082-16.924 20.164-25.442 30.193-.219.279-.433.567-.656.86-.936 1.255-1.936 2.587-3.551 3.561zm608.102-104.811c39.773 35.92 64.149 80.682 73.9 132.924 10.859 58.135 3.044 113.818-26.093 165.73-34.569 61.575-87.31 101.046-156.113 118.896-59.22 15.393-117.942 12.279-174.615-11.027-73.793-30.408-121.493-84.997-143.872-160-20.001-67.091-12.739-132.324 23.045-193.135 34.849-59.283 87.31-96.403 154.34-113.708 23.105-5.95 44.874-8.297 74.017-8.352 63.097.492 124.146 22.491 175.393 68.672zm-190.352 56.172c70.246-.164 116.173 38.976 128.694 93.238 7.587 32.698 4.208 64.465-12.023 94.161-19.112 34.886-48.919 55.189-89.027 59.722-38.777 4.422-72.625-6.442-100.273-34.062-17.725-17.687-28.416-39.252-32.959-63.595-5.762-30.846-2.216-60.705 12.963-88.381 22.323-40.778 58-60.321 92.625-61.085zM1969.72 0h1567.735v1024H1969.72V0zm526.354 524.73V292.783c0-.807-.009-1.514-.019-2.133-.033-2.213-.051-3.311.503-3.847.545-.528 1.638-.512 3.812-.48a131.787 131.787 0 0 0 2.075.019c26.447-.036 52.918-.024 79.379-.012 13.228.006 26.456.012 39.675.012.317 0 .633.012.945.025.624.024 1.233.048 1.825-.025 2.993-.328 3.933 1.092 3.654 3.821-.07.728-.047 1.455-.023 2.183l.019.559.005.532v463.349c0 .479.005.926.014 1.345.005.447.014.861.023 1.243.047 2.183.07 3.305-.489 3.868-.582.591-1.811.577-4.324.549-.647-.009-1.378-.019-2.202-.019-26.191.037-52.382.023-78.555.014h-.107c-13.098-.009-26.196-.014-39.284-.014-.368 0-.735-.014-1.108-.023-.735-.028-1.475-.051-2.216.023-3.1.438-3.821-1.145-3.603-3.821.074-.945.051-1.913.028-2.886a52.183 52.183 0 0 1-.028-1.48V524.729zm656.696-238.372h-196.734c-65.513 0-131.025 0-196.487-.054-.498 0-.996.006-1.485.012-.982.012-1.95.024-2.946-.012-2.216-.109-2.993.928-2.825 2.948.037.617.023 1.209.014 1.81a30.89 30.89 0 0 0-.014.92v110.815c0 3.171-.107 4.62.573 5.275.694.664 2.202.512 5.464.512h123.541c4.017 0 6.014 0 7 .977.977.963.977 2.873.977 6.666v341.671c0 3.146-.195 4.608.456 5.278.647.67 2.132.563 5.469.563h118.556c3.705 0 5.548 0 6.461-.903.908-.894.908-2.667.908-6.195v-341.67c0-3.452-.219-5.036.484-5.757.707-.727 2.355-.575 6.107-.575h125.757c5.427 0 5.427 0 5.483-5.295V293.075c0-3.807.209-5.484-.54-6.21-.745-.721-2.434-.505-6.218-.505z"/>
</svg>
