<svg aria-hidden="true" style="position: absolute; width: 0; height: 0; overflow: hidden;" version="1.1" xmlns="http://www.w3.org/2000/svg" xmlns:xlink="http://www.w3.org/1999/xlink">
<defs>
<symbol id="icon-logo1" viewBox="0 0 111 32">
<path d="M0 0v32h48.73l12.823-16-12.823-16h-48.73zM21.977 14.368c-0.179-0.141-0.253-0.2-0.326-0.259l0.1 0.079c-0.189-0.151-0.375-0.301-0.567-0.444-0.519-0.394-1.087-0.708-1.735-0.848-0.717-0.156-1.44-0.211-2.156 0.003-1.018 0.305-1.729 0.972-2.198 1.897-0.39 0.771-0.495 1.588-0.393 2.438 0.083 0.666 0.298 1.283 0.695 1.831 0.609 0.841 1.44 1.327 2.479 1.455 0.935 0.116 1.841 0 2.698-0.406 0.291-0.138 0.291-0.141 0.291-0.461v-0.006l0.001-0.233c0-0.081 0.001-0.178 0.001-0.274s-0-0.193-0.001-0.289l0 0.015c0.001-0.064 0.001-0.097-0.015-0.115-0.017-0.017-0.054-0.016-0.129-0.015h-2.847c-0.076 0-0.113 0-0.131-0.017-0.017-0.016-0.016-0.049-0.015-0.116v-2.233c0-0.164 0-0.359 0-0.553s-0-0.388-0-0.582v0.029c0.001-0.028 0.003-0.054 0-0.081-0.004-0.063 0.017-0.096 0.087-0.090 0.012 0.001 0.026 0.001 0.041 0.001s0.029-0 0.043-0.001l-0.002 0h6.911c0.045 0 0.083 0.009 0.077 0.065-0.004 0.033 0.017 0.057 0.039 0.080 0.028 0.029 0.055 0.058 0.039 0.108-0.013 0.044-0.010 0.092-0.006 0.138 0.002 0.019 0.003 0.041 0.003 0.064v1.225c0 1.633 0 3.267 0.003 4.899 0 0.005 0 0.012 0 0.018 0 0.116-0.057 0.218-0.143 0.281l-0.001 0.001c-1.206 1.013-2.669 1.76-4.275 2.133l-0.070 0.014c-0.632 0.146-1.359 0.229-2.104 0.229-0.288 0-0.573-0.012-0.855-0.037l0.037 0.003c-1.164-0.092-2.269-0.387-3.292-0.945-1.875-1.028-3.055-2.586-3.599-4.623-0.169-0.614-0.265-1.32-0.265-2.048 0-0.243 0.011-0.484 0.032-0.722l-0.002 0.031c0.285-3.43 2.72-6.103 5.981-6.848 0.931-0.212 1.872-0.244 2.822-0.18 0.726 0.049 1.44 0.161 2.14 0.367 1.047 0.308 1.972 0.841 2.815 1.523 0.097 0.080 0.195 0.16 0.291 0.243 0.121 0.102 0.124 0.16 0.017 0.287l-1.59 1.891h-0.001l-0.796 0.945c-0.007 0.007-0.015 0.016-0.020 0.026-0.029 0.044-0.066 0.081-0.109 0.11l-0.001 0.001zM40.98 11.092l0.007 0.006c1.175 1.054 2.004 2.487 2.302 4.15 0.339 1.815 0.096 3.555-0.815 5.178-1.082 1.924-2.729 3.158-4.879 3.715-1.85 0.481-3.686 0.383-5.457-0.345-2.305-0.95-3.798-2.656-4.496-4.999-0.625-2.097-0.399-4.135 0.72-6.036 1.089-1.852 2.729-3.012 4.823-3.552 0.721-0.186 1.402-0.26 2.313-0.262h0.002c2.116 0.008 4.041 0.822 5.48 2.145zM35.031 12.848c2.195-0.004 3.629 1.219 4.022 2.913 0.237 1.023 0.132 2.015-0.377 2.943-0.596 1.091-1.529 1.725-2.781 1.866-1.212 0.138-2.269-0.201-3.135-1.063-0.553-0.553-0.887-1.228-1.030-1.988-0.179-0.963-0.068-1.897 0.406-2.761 0.698-1.276 1.812-1.885 2.895-1.91z"></path>
<path d="M61.553 0h48.992v32h-48.992v-32zM78.003 16.399v-7.316c-0.003-0.068-0.003-0.102 0.015-0.119s0.051-0.016 0.119-0.015c0.010 0 0.021 0 0.032 0s0.022-0 0.034-0h3.806c0.093-0.010 0.122 0.033 0.113 0.119-0.001 0.023 0 0.045 0 0.068v14.513c0 0.002 0 0.004 0 0.007 0 0.026 0.001 0.052 0.002 0.078l-0-0.004c0.001 0.068 0.003 0.102-0.015 0.121-0.019 0.017-0.058 0.017-0.135 0.017l-3.789-0.001c-0.010-0.001-0.023-0.001-0.035-0.001s-0.024 0-0.037 0.001l0.002-0c-0.097 0.015-0.119-0.035-0.112-0.119v-7.351zM98.524 8.948l-12.425-0.001c-0.070-0.003-0.093 0.029-0.087 0.092v3.548c0 0.1-0.004 0.145 0.017 0.166 0.020 0.020 0.068 0.016 0.17 0.016h3.86c0.127 0 0.189 0 0.218 0.031 0.032 0.029 0.032 0.090 0.032 0.208v10.676c0 0.1-0.007 0.145 0.015 0.166 0.019 0.022 0.065 0.017 0.17 0.017h3.705c0.116 0 0.175 0 0.202-0.028 0.029-0.029 0.029-0.083 0.029-0.193v-10.676c0-0.109-0.007-0.159 0.015-0.18 0.022-0.023 0.073-0.019 0.189-0.019h3.932c0.169 0 0.169 0 0.17-0.164v-3.447c0-0.118 0.007-0.17-0.016-0.193-0.023-0.022-0.076-0.015-0.195-0.015z"></path>
</symbol>
<symbol id="icon-logo" viewBox="0 0 100 32">
<path d="M0 16v15h44l5.85-7.35 5.9-7.35 0.3 14.7h43.95v-30h-43.95l-0.3 14.7-5.9-7.35-5.85-7.35h-44v15zM20.75 10.2l1.25 0.85-1.1 1.45c-1 1.4-1.15 1.45-2.2 0.75-1.65-1.1-3.050-0.95-4.45 0.5-1.5 1.5-1.55 2.7-0.2 4.45 1.2 1.5 4.45 1.9 4.45 0.55 0-0.45-0.45-0.75-1.25-0.75-1.1 0-1.25-0.2-1.25-1.75v-1.8l6.25 0.3v2.95c0 2.6-0.15 3.050-1.3 3.95-3.1 2.3-8.55 1.4-10.45-1.75-2.4-4-0.5-9.35 3.75-10.55 1.7-0.5 5.15 0 6.5 0.85zM34.8 9.8c5 2.35 5.4 8.95 0.75 12.050-3.3 2.2-8.25 1.050-10.15-2.4-1.3-2.3-1-6 0.65-7.8 2.4-2.55 5.7-3.3 8.75-1.85zM73.5 15.75v6.75h-3.5v-13.5h3.5v6.75zM88.5 10.75c0 1.7-0.050 1.75-2 1.75h-2v10h-3.5v-10h-2c-1.95 0-2-0.050-2-1.75v-1.75h11.5v1.75z"></path>
<path d="M29.5 13.5c-2.15 2.15-0.75 6 2.15 6 3.15 0 4.5-4 2.050-5.95-1.65-1.3-2.9-1.35-4.2-0.050z"></path>
</symbol>
</defs>
</svg>
