<svg aria-hidden="true" style="position: absolute; width: 0; height: 0; overflow: hidden;" version="1.1" xmlns="http://www.w3.org/2000/svg" xmlns:xlink="http://www.w3.org/1999/xlink">
<defs>
<symbol id="icon-logo" viewBox="0 0 111 32">
<path d="M0 0v32h48.73l12.823-16-12.823-16h-48.73zM21.977 14.368c-0.179-0.141-0.253-0.2-0.326-0.259l0.1 0.079c-0.189-0.151-0.375-0.301-0.567-0.444-0.519-0.394-1.087-0.708-1.735-0.848-0.717-0.156-1.44-0.211-2.156 0.003-1.018 0.305-1.729 0.972-2.198 1.897-0.39 0.771-0.495 1.588-0.393 2.438 0.083 0.666 0.298 1.283 0.695 1.831 0.609 0.841 1.44 1.327 2.479 1.455 0.935 0.116 1.841 0 2.698-0.406 0.291-0.138 0.291-0.141 0.291-0.461v-0.006l0.001-0.233c0-0.081 0.001-0.178 0.001-0.274s-0-0.193-0.001-0.289l0 0.015c0.001-0.064 0.001-0.097-0.015-0.115-0.017-0.017-0.054-0.016-0.129-0.015h-2.847c-0.076 0-0.113 0-0.131-0.017-0.017-0.016-0.016-0.049-0.015-0.116v-2.233c0-0.164 0-0.359 0-0.553s-0-0.388-0-0.582v0.029c0.001-0.028 0.003-0.054 0-0.081-0.004-0.063 0.017-0.096 0.087-0.090 0.012 0.001 0.026 0.001 0.041 0.001s0.029-0 0.043-0.001l-0.002 0h6.911c0.045 0 0.083 0.009 0.077 0.065-0.004 0.033 0.017 0.057 0.039 0.080 0.028 0.029 0.055 0.058 0.039 0.108-0.013 0.044-0.010 0.092-0.006 0.138 0.002 0.019 0.003 0.041 0.003 0.064v1.225c0 1.633 0 3.267 0.003 4.899 0 0.005 0 0.012 0 0.018 0 0.116-0.057 0.218-0.143 0.281l-0.001 0.001c-1.206 1.013-2.669 1.76-4.275 2.133l-0.070 0.014c-0.632 0.146-1.359 0.229-2.104 0.229-0.288 0-0.573-0.012-0.855-0.037l0.037 0.003c-1.164-0.092-2.269-0.387-3.292-0.945-1.875-1.028-3.055-2.586-3.599-4.623-0.169-0.614-0.265-1.32-0.265-2.048 0-0.243 0.011-0.484 0.032-0.722l-0.002 0.031c0.285-3.43 2.72-6.103 5.981-6.848 0.931-0.212 1.872-0.244 2.822-0.18 0.726 0.049 1.44 0.161 2.14 0.367 1.047 0.308 1.972 0.841 2.815 1.523 0.097 0.080 0.195 0.16 0.291 0.243 0.121 0.102 0.124 0.16 0.017 0.287l-1.59 1.891h-0.001l-0.796 0.945c-0.007 0.007-0.015 0.016-0.020 0.026-0.029 0.044-0.066 0.081-0.109 0.11l-0.001 0.001zM40.98 11.092l0.007 0.006c1.175 1.054 2.004 2.487 2.302 4.15 0.339 1.815 0.096 3.555-0.815 5.178-1.082 1.924-2.729 3.158-4.879 3.715-1.85 0.481-3.686 0.383-5.457-0.345-2.305-0.95-3.798-2.656-4.496-4.999-0.625-2.097-0.399-4.135 0.72-6.036 1.089-1.852 2.729-3.012 4.823-3.552 0.721-0.186 1.402-0.26 2.313-0.262h0.002c2.116 0.008 4.041 0.822 5.48 2.145zM35.031 12.848c2.195-0.004 3.629 1.219 4.022 2.913 0.237 1.023 0.132 2.015-0.377 2.943-0.596 1.091-1.529 1.725-2.781 1.866-1.212 0.138-2.269-0.201-3.135-1.063-0.553-0.553-0.887-1.228-1.030-1.988-0.179-0.963-0.068-1.897 0.406-2.761 0.698-1.276 1.812-1.885 2.895-1.91z"></path>
<path d="M61.553 0h48.992v32h-48.992v-32zM78.003 16.399v-7.316c-0.003-0.068-0.003-0.102 0.015-0.119s0.051-0.016 0.119-0.015c0.010 0 0.021 0 0.032 0s0.022-0 0.034-0h3.806c0.093-0.010 0.122 0.033 0.113 0.119-0.001 0.023 0 0.045 0 0.068v14.513c0 0.002 0 0.004 0 0.007 0 0.026 0.001 0.052 0.002 0.078l-0-0.004c0.001 0.068 0.003 0.102-0.015 0.121-0.019 0.017-0.058 0.017-0.135 0.017l-3.789-0.001c-0.010-0.001-0.023-0.001-0.035-0.001s-0.024 0-0.037 0.001l0.002-0c-0.097 0.015-0.119-0.035-0.112-0.119v-7.351zM98.524 8.948l-12.425-0.001c-0.070-0.003-0.093 0.029-0.087 0.092v3.548c0 0.1-0.004 0.145 0.017 0.166 0.020 0.020 0.068 0.016 0.17 0.016h3.86c0.127 0 0.189 0 0.218 0.031 0.032 0.029 0.032 0.090 0.032 0.208v10.676c0 0.1-0.007 0.145 0.015 0.166 0.019 0.022 0.065 0.017 0.17 0.017h3.705c0.116 0 0.175 0 0.202-0.028 0.029-0.029 0.029-0.083 0.029-0.193v-10.676c0-0.109-0.007-0.159 0.015-0.18 0.022-0.023 0.073-0.019 0.189-0.019h3.932c0.169 0 0.169 0 0.17-0.164v-3.447c0-0.118 0.007-0.17-0.016-0.193-0.023-0.022-0.076-0.015-0.195-0.015z"></path>
</symbol>
<symbol id="icon-logo1" viewBox="0 0 111 32">
<path d="M0 0h33.502l8.816 11-8.816 11H0V0Zm15.109 9.878a36.703 36.703 0 0 1-.155-.124c-.13-.104-.258-.207-.39-.305-.357-.271-.747-.487-1.193-.583-.493-.107-.99-.145-1.482.002-.7.21-1.189.668-1.511 1.304-.268.53-.34 1.092-.27 1.676.057.458.205.882.478 1.259.419.578.99.912 1.704 1 .643.08 1.266 0 1.855-.279.2-.095.2-.097.2-.317v-.004l.001-.16a34.206 34.206 0 0 0 0-.377c.001-.044.001-.067-.01-.079-.012-.012-.037-.011-.089-.01H12.29c-.052 0-.078 0-.09-.012-.012-.011-.011-.034-.01-.08v-1.535a898.478 898.478 0 0 0 0-.761c.001-.019.002-.037 0-.056-.003-.043.012-.066.06-.062a.518.518 0 0 0 .056 0h4.751c.031 0 .057.006.053.045-.003.023.012.039.027.055.019.02.038.04.027.074-.009.03-.007.063-.004.095a.6.6 0 0 1 .002.044v.842c0 1.123 0 2.246.002 3.368a.238.238 0 0 1-.099.206 7.099 7.099 0 0 1-2.987 1.476 6.72 6.72 0 0 1-2.009.134c-.8-.063-1.56-.266-2.263-.65-1.289-.707-2.1-1.778-2.474-3.178a5.522 5.522 0 0 1-.162-1.883c.196-2.358 1.87-4.196 4.112-4.708.64-.146 1.287-.168 1.94-.124.499.034.99.111 1.471.252.72.212 1.356.578 1.935 1.047.067.055.134.11.2.167.083.07.085.11.012.197l-1.093 1.3h-.001l-.547.65c-.005.005-.01.011-.014.018a.269.269 0 0 1-.076.076Zm13.065-2.252a5.608 5.608 0 0 0-3.769-1.475c-.626.001-1.094.052-1.59.18-1.44.371-2.567 1.169-3.316 2.442-.769 1.307-.925 2.708-.495 4.15.48 1.611 1.506 2.784 3.091 3.437 1.218.5 2.48.568 3.752.237 1.478-.383 2.61-1.231 3.354-2.554.626-1.116.793-2.312.56-3.56a4.985 4.985 0 0 0-1.587-2.857Zm-4.09 1.207c-.744.017-1.51.436-1.99 1.313-.326.594-.402 1.236-.279 1.898.098.523.328.987.708 1.367.595.593 1.322.826 2.155.731.861-.097 1.502-.533 1.912-1.283.35-.638.422-1.32.259-2.023-.27-1.165-1.256-2.006-2.765-2.003Z" style="stroke:none;stroke-width:0;stroke-dasharray:none;stroke-linecap:butt;stroke-dashoffset:0;stroke-linejoin:miter;stroke-miterlimit:4;fill:#000;fill-rule:evenodd;opacity:1" transform="translate(1.454 1.64) scale(14.16)" vector-effect="non-scaling-stroke"></path>
<path d="M42.318 0H76v22H42.318V0Zm11.309 11.274v-5.03c-.002-.047-.002-.07.01-.082.012-.012.035-.011.082-.01a3.983 3.983 0 0 0 .044 0h2.618c.064-.007.084.023.078.082-.001.016 0 .031 0 .047v9.978a1.303 1.303 0 0 0 .001.056c.001.047.002.07-.01.083-.013.012-.04.012-.093.012h-2.582l-.023-.001a.344.344 0 0 0-.048 0c-.067.01-.082-.024-.077-.082v-5.054Zm14.108-5.122H63.51l-4.222-.001h-.095c-.048-.002-.064.02-.06.063v2.439c0 .069-.003.1.012.114.014.014.047.011.117.011h2.654c.087 0 .13 0 .15.021.022.02.022.062.022.143v7.34c0 .069-.005.1.01.114.013.015.045.012.117.012h2.547c.08 0 .12 0 .139-.019.02-.02.02-.057.02-.133v-7.34c0-.075-.005-.109.01-.124.015-.016.05-.013.13-.013h2.703c.116 0 .116 0 .117-.113v-2.37c0-.081.005-.117-.011-.133-.016-.015-.052-.01-.134-.01Z" style="stroke:none;stroke-width:0;stroke-dasharray:none;stroke-linecap:butt;stroke-dashoffset:0;stroke-linejoin:miter;stroke-miterlimit:4;fill:#000;fill-rule:evenodd;opacity:1" transform="translate(1.664 1.64) scale(14.16)" vector-effect="non-scaling-stroke"></path>
</symbol>
</defs>
</svg>
